<?xml version="1.0" encoding="utf-8"?>
<!-- Generator: Adobe Illustrator 24.2.1, SVG Export Plug-In . SVG Version: 6.00 Build 0)  -->
<svg version="1.1" id="Layer_1" xmlns="http://www.w3.org/2000/svg" xmlns:xlink="http://www.w3.org/1999/xlink" x="0px" y="0px"
	 viewBox="0 0 293 122.4" style="enable-background:new 0 0 293 122.4;" xml:space="preserve">
<style type="text/css">
	.st0{fill:#FFFFFF;}
	.st1{fill:#F6F6F6;}
	.st2{fill:none;}
	.st3{fill:#EEEEEE;}
	.st4{fill:#F9F9F9;}
	.st5{fill:#E1E1E1;}
	.st6{fill:#E7E7E7;}
	.st7{fill:#E0E0E0;}
	.st8{fill:#D1D1D1;}
	.st9{fill:#5C5C5C;}
	.st10{opacity:0.9;fill:#182642;enable-background:new    ;}
</style>
<g id="Layer_2_1_">
	<g id="OBJECTS">
		<rect y="-20.6" class="st0" width="293" height="143"/>
		<path class="st1" d="M15.1-20.9c0,0.1,0,0.2,0,0.3h1.3C15.6-20.9,15.2-21,15.1-20.9z"/>
		<polygon class="st1" points="8.6,-20.9 8.5,-20.6 8.9,-20.6 		"/>
		<polygon class="st2" points="125.6,-20.6 125.4,-20.6 128.2,-17.2 		"/>
		<polygon class="st2" points="0,108.3 27.7,122.4 35.7,122.4 0,103.9 		"/>
		<path class="st2" d="M284.3,86.1c0,0-1.7,3.3-0.8,6.3c0.8,2.4,5.5,6.9,9.5,11.2V93.3l-2.3,2.2c0,0-2.7-2.6-3.1-4
			c-0.2-1.1-0.1-2.1,0.3-3.1L293,83v-4.8L284.3,86.1z"/>
		<polygon class="st2" points="293,-4.3 293,-9 245.2,-9 232.8,-20.6 225.3,-20.6 243.9,-3 		"/>
		<path class="st2" d="M132.2-12.2l-3.5-4.5l-7.4-3.9h-6.7l17.8,8.6L132.2-12.2z"/>
		<path class="st2" d="M161.9-17.2l-2.9-3.4l0,0l15.4,18l17-18H173C171-19.1,162-17,161.9-17.2z"/>
		<path class="st2" d="M160.3-6.6l-11.5-14h-5.6L160.3,1l-18.6-21.6h-5l33.4,37.7l108.1,105.4h4.6L242,82.8l-44-41.6l-28.9-30V9.1
			L190.6,31c0,0,52.3,49.7,52.4,50.5c0.1,0.5,27.1,26.4,42.3,40.9h4.8l-76.8-74.1L160.3-6.6z"/>
		<path class="st2" d="M230.6,118.1c-2.2,0.4-11.8,4-11.8,4c-2.6-7.4-5.7-14.7-9.3-21.8c-4.8-9-23.3-26.6-24.8-28l-13.6-12l11-12.8
			c0,0,6.3-1,6.5-0.8s17.5,16.7,32.4,31.1l-41.6-40.4l-40-42.1l-4.1,4l-3.5,7.1l-40.4-21l2.9-6.1h-5.8l-0.4,1.1l-2.3-1.1h-7.2
			l7.9,4.5c0,0-4,9.5-4.2,9.5S57.8-18,57.8-18s0.5-1.1,1.2-2.6H45.8l2.8,1.4L43.5-8.7l-23-11.9h-4.1C21.8-18.4,42.9-7,42.9-7
			L35.5,8.4L19.6,0.6c0,0,4.2-6.9,3.4-9.5c-0.7-2.4-7.4-9.9-7.8-11.6H8.9l9,10.5c0.4,1.8,0.2,3.7-0.7,5.4C16.1-2.5,5.1,20.2,0,30.6
			v9.9l2-3.9l15.2,7.2L12.6,54L0,48v1.5l11.7,5.9L6.9,65.8L0,62.4V64l5.9,3l-4.8,9.5L0,76v1.8l0.6,0.3L0,79.9V98l2.8-5.3l20.9,10.7
			l0.4,1.7l20.7,9.6l-4.1,7.7h9.6l-2.9-1.3l5.1-10.6l20.4,9.6c0,0-0.4,1-1,2.4h3c6-11.4,13.8-26.5,13.8-26.5l14.9,7.9l-9.2,18.6h3.2
			l1.2-2.5l4.8,2.5h8.4l-11.3-6.2l5.7-11.2l31.8,17.4h5.7L110,103.1h-3.7l6.3-13.6c0.5,0.3,0.9,0.6,1.3,1v1.6l37.2,20.6l-5.7,9.8
			h5.8l4-6.6l12.7,6.6h8.8c-9.6-5.1-19.1-10.1-19.4-10.1c0,0,5.8-11,5.8-11.2s29.1,16.4,37.7,21.3h7.2l3.7-6.6l1.9,6.6h10.9l7.2-2.7
			C231.6,119.8,232.8,117.7,230.6,118.1z M89.6-11.2l38,19.5h3.6L125,19.4L84.7-0.4C84.8-0.7,89.6-11.2,89.6-11.2z M130.7,12.4
			l-0.4,9.5l-3.6-1.9L130.7,12.4z M120,29.3l-13.2,28.3l-1.5,0.5l-2.5,4.7c0,0-8.9-5.5-9.4-5.7L112.3,19l9.1,4.2l-1.9,3.1L120,29.3z
			 M58.4,80.2L54,77.9h-2.2l-1.3-2.2v-2.3l11.2,6.3L58.4,80.2z M61,81.7l-1.9,4.5h-3.6l-6.7-4.5l3.8-2.3l4.9,2.3H61z M37.7,77.9
			l-2.2,4.8L29,79.5l19.4-39.8l8.2,4.6L44.9,67.8l-2.7,0.6l-5,7L37.7,77.9z M50.5,67.9l4.1-7.8l39.9,19.4L91,86.2
			c0,0-18.6-10.5-18.8-10.4s-7.3,0-7.3,0S50.8,67.8,50.5,67.9L50.5,67.9z M56.6,56.8c0,0,4.9-10.9,5.1-10.6s40.1,20.3,40.1,20.3
			l-6.6,10.3L56.6,56.8z M80,50.6l19.1-38.3l10.5,5.1l-20,38.4C89.6,55.9,80.8,50.8,80,50.6z M82.4,3.8l13.7,7.3L76.2,48.9
			c0,0-12.1-6.1-12.4-6.4L82.4,3.8z M57.3-16.5l24,11.3L75.5,6.9L51.4-4.8L57.3-16.5z M50.4-3.4L74.8,8.4l-3.9,8.3l-24-13L50.4-3.4z
			 M46.3,5.6l23.6,12.7l-4.8,10.2L41.2,16.8L46.3,5.6z M39.1,20l24.8,12.1l-6.1,11L33.9,30.3L39.1,20z M19.2,2.3l15.1,7.5L29.6,20
			L14,12.6C14,12.4,19.2,2.3,19.2,2.3z M13.2,14.2c0.1,0,15.5,7.1,15.5,7.1l-4.9,9.9L8.6,23.4C8.6,23.4,13.1,14.2,13.2,14.2
			L13.2,14.2z M2.7,35.3l5.2-10.4l15,7.9l-4.8,9.7L2.7,35.3z M33,31.5c0.2,0.3,13.8,7.3,13.8,7.3L27.5,78.9l-10.2-6v-1.7l-2.7-2.1
			C14.5,69.2,32.8,31.2,33,31.5z M27.1,101.6h-2.3c0,0-20.1-11.2-20.1-11l7.7-17.9l2.5,1.6h1.9l17.5,10.5l2.4-0.9l2.5,2l-0.6,2
			c0,0,1.1,20,1.2,20.2S27.1,101.6,27.1,101.6L27.1,101.6z M39.7,84.7c-0.6-0.3-1.6-1.9-2.2-2.1l2.2-4.7h0.6l5.4-6.9l3.5,1.6
			l-0.7,2.7l2,3C50.5,78.4,40.3,85.1,39.7,84.7L39.7,84.7z M46.9,111.9l-5.2-3.4l-1.2-21.8c0.2,0.2,6.4-3.8,6.4-3.8l8.8,5h3
			L46.9,111.9z M73.6,118.5c0,0.2-19.4-10.1-19.7-9.9l5.7-11.2l19.8,10.8C79.3,108.2,73.6,118.2,73.6,118.5L73.6,118.5z M81.1,104.7
			c-0.2,0.1-19.7-11-20.1-10.9L66.6,80l4.8-0.6l18.2,10.7C89.7,90.1,81.4,104.6,81.1,104.7L81.1,104.7z M98.5,99c-0.2,0-8.4-5-8.4-5
			l2.8-6.4c0,0,5.1-1.5,6.9-0.4s1.4,2.7,1.4,4.8S98.7,98.9,98.5,99L98.5,99z M111.2,87.6l-6.4,14.7c0,0-3.7-2.6-4.3-2.8
			c1.4-2,2.2-4.3,2.6-6.7c0.3-3.5,0.2-5.6-1.4-7.1s-8-1-8-1l9.7-17.5l10.9,6.2L111.2,87.6z M160.4,95.4l-10-5.5l-2.2,3.2l10.2,5.5
			l-5.6,11.2l-36.3-21.4l-3.3-0.3l3.7-13.6l1.3,1l0.6,1.9l24,12.9l-5-7.3l-16.4-9l-2.8,0.1l-1.6-1.3l6-12.4l2.2,1.2
			c-0.6-2.7-0.7-5.4-0.2-8.1l-2.3,2.9L116,70.7l-10.2-6.2c0.2-0.1,2.5-4.5,2.5-4.5l-0.4-1.7l13.5-28.5l1.9-1L125,25l7.8,3.9l6.6,6
			l-1.5,1.8c0.6-0.3,1.3-0.5,1.9-0.7l0.1-0.2l0.1,0.1c2-0.6,4.1-0.9,6.2-0.9l-7.3-7.8l-7.2-5l0.9-8.9l-0.9-2.3l5.2-9.8l4.5-3.2
			l38.1,39.6v5.1l-11.1,13.6c0,0.2,0,0.5,0,0.7c0,2.1-0.3,4.2-0.9,6.3c4.2,4.2,7.3,7.3,7.3,7.5c0,0.5-6.4,11-6.4,11l-8.9-5l-2,2.9
			l9.1,5.1L160.4,95.4z M164.9,97.5l13.6-23.1l10.1,8.4l-12,21.1C176.6,104,165.5,97.6,164.9,97.5L164.9,97.5z M204.2,120.2
			L180,105.8l11.4-20c3.7,3.7,7,7.7,10.1,11.9c2.9,4.4,5.5,8.9,7.9,13.6L204.2,120.2z"/>
		<path class="st2" d="M259.6,73.1c0.4-2.2,0.6-3.6-0.1-4.7s-12-7.2-12-7.2s-2-0.6-2.8,0.3s0.6,1.9,0,2.3s-4.4-3-4.4-3
			s0.7-2.1,1.2-3.4l0,0l-1.4-0.6c-0.8,1.2-1.5,2.5-2.1,3.8l-63.6-63l0.2,0.3l65,64.5c0.9,0.5,8.8,5,8.8,5l-1.1,2.6l1.4,1.4l2.2-4.6
			c0,0-5.4-3.8-5-4.3s10,4.4,10,6s-2,8-2,8.1l39,38.5V115l-37.3-37C255.7,78,259.2,75.2,259.6,73.1z M257.3,69.3
			c0.8,1,1.1,2.2,0.9,3.4c-0.6,1.4-1.5,2.5-2.7,3.4C255.5,76.2,257.4,69.3,257.3,69.3L257.3,69.3z"/>
		<path class="st2" d="M6.5-20.6C5.1-17.4,2.2-10.4,0-5.3v4.2l8.5-19.4h-2V-20.6z"/>
		<path class="st3" d="M136.7-20.6h-11.1l2.6,3.3l0.5,0.6l0,0l3.5,4.5l0.2,0.2l0.3,0.2l6.7,7.2l0,0l40.2,42.1l41.6,40.4
			c8.2,7.8,15.6,15,19.1,18.3v-0.1l9.4,9.2l17.6,17.2h11.1L170.1,17.1L136.7-20.6z"/>
		<polygon class="st4" points="143.3,-20.6 141.7,-20.6 160.3,1.1 		"/>
		<path class="st3" d="M254.1,76.5l-5.2-5.2l0,0l-1.4-1.4l0,0l-7.8-7.7l0.1,0.1l-65-64.5l-0.2-0.3l-0.1-0.1l0,0l-15.4-18h-10.2
			l11.5,14l53,55l76.8,74.1h2.9v-7.4L254.1,76.5L254.1,76.5z"/>
		<path class="st5" d="M243,81.5c-0.1-0.8-52.4-50.5-52.4-50.5L169.1,9.1v2.1l28.9,30l44,41.6l40.9,39.6h2.5
			C270.1,107.9,243.1,82.1,243,81.5z"/>
		<path class="st1" d="M48.6-19.2l-2.8-1.4H20.5l23,11.9L48.6-19.2z"/>
		<path class="st1" d="M19.6,0.6l15.9,7.9L42.9-7c0,0-21.1-11.4-26.6-13.6H15c0.4,1.8,7.1,9.2,7.8,11.6C23.7-6.3,19.6,0.6,19.6,0.6z
			"/>
		<path class="st1" d="M34.3,9.9L19.2,2.3c0,0-5.2,10.1-5.2,10.2L29.6,20L34.3,9.9z"/>
		<path class="st1" d="M28.7,21.3c0,0-15.3-7.1-15.5-7.1s-4.6,9.3-4.6,9.3l15.2,7.7L28.7,21.3z"/>
		<polygon class="st1" points="23,32.8 7.9,24.9 2.7,35.3 18.2,42.5 		"/>
		<polygon class="st1" points="17.2,43.9 2,36.7 0,40.6 0,48 12.6,54 		"/>
		<polygon class="st1" points="11.7,55.4 0,49.4 0,62.5 6.9,65.8 		"/>
		<polygon class="st1" points="5.9,67 0,64 0,76 1.1,76.5 		"/>
		<path class="st1" d="M0,77.8v2.1l0.6-1.8L0,77.8z"/>
		<path class="st1" d="M17.9-10.1l-9-10.5H8.5L0-1.1v31.8C5.1,20.2,16.1-2.5,17.2-4.8C18.1-6.4,18.3-8.3,17.9-10.1z"/>
		<path class="st1" d="M0-20.6v15.3c2.2-5.1,5.1-12.1,6.5-15.3H0z"/>
		<polygon class="st1" points="88.4,-20.6 85.7,-20.6 87.9,-19.5 		"/>
		<path class="st1" d="M82.2-6.6c0.2,0,4.2-9.5,4.2-9.5l-7.9-4.5H59c-0.7,1.4-1.3,2.5-1.3,2.6S82-6.6,82.2-6.6z"/>
		<polygon class="st1" points="81.3,-5.3 57.2,-16.5 51.4,-4.8 75.5,6.9 		"/>
		<polygon class="st1" points="74.8,8.4 50.4,-3.4 46.9,3.7 70.9,16.8 		"/>
		<polygon class="st1" points="69.9,18.3 46.3,5.6 41.2,16.8 65.1,28.5 		"/>
		<polygon class="st1" points="57.8,43.1 63.9,32 39.1,20 33.9,30.3 		"/>
		<path class="st1" d="M17.2,72.9l10.2,6l19.4-40c0,0-13.6-7-13.9-7.3S14.5,69.2,14.5,69.2l2.7,2.1V72.9z"/>
		<polygon class="st1" points="44.9,67.8 56.6,44.4 48.4,39.8 29,79.5 35.6,82.7 37.7,77.9 37.2,75.4 42.2,68.4 		"/>
		<path class="st1" d="M39.2,86l-2.5-2l-2.4,0.9L16.7,74.4h-1.9l-2.5-1.6L4.6,90.6c0-0.2,20.1,11,20.1,11h2.4c0,0,12.7,6.8,12.6,6.6
			S38.5,88,38.5,88L39.2,86z"/>
		<path class="st1" d="M48.5,75.4l0.7-2.7L45.7,71l-5.4,6.8h-0.6l-2.2,4.7c0.5,0.2,1.6,1.8,2.2,2.1s10.7-6.3,10.7-6.3L48.5,75.4z"/>
		<polygon class="st1" points="50.5,73.4 50.5,75.7 51.8,77.9 54,77.9 58.4,80.2 61.7,79.7 		"/>
		<path class="st1" d="M55.7,87.9l-8.8-5c0,0-6.2,4-6.4,3.8l1.2,21.8l5.2,3.4l11.8-24H55.7z"/>
		<path class="st1" d="M52.6,79.4c0,0-3.7,2.3-3.8,2.3l6.7,4.5h3.6l1.8-4.5h-3.5L52.6,79.4z"/>
		<polygon class="st1" points="24.2,105.1 23.8,103.4 2.8,92.7 0,98 0,103.9 35.7,122.4 40.8,122.4 44.9,114.7 		"/>
		<polygon class="st1" points="0,122.4 27.7,122.4 0,108.3 		"/>
		<path class="st1" d="M52.6,110.5l-5.1,10.6l2.9,1.4h21.7c0.6-1.4,1-2.4,1-2.4L52.6,110.5z"/>
		<path class="st1" d="M53.9,108.6c0.3-0.3,19.7,10.1,19.7,9.9s5.7-10.3,5.7-10.3L59.5,97.4L53.9,108.6z"/>
		<path class="st1" d="M66.6,80L61,93.8c0.4-0.1,19.9,11,20.1,10.9s8.5-14.6,8.5-14.6L71.5,79.4L66.6,80z"/>
		<path class="st1" d="M72.2,75.7c0.2,0,18.8,10.5,18.8,10.5l3.5-6.8L54.6,60.1L50.5,68c0.4-0.2,14.4,7.8,14.4,7.8
			S72,75.8,72.2,75.7z"/>
		<path class="st1" d="M101.8,66.5c0,0-39.9-20.1-40.1-20.3s-5.1,10.6-5.1,10.6l38.6,20L101.8,66.5z"/>
		<path class="st1" d="M76.2,48.9L96,11.1L82.4,3.9L63.9,42.4C64.1,42.7,76.2,48.9,76.2,48.9z"/>
		<path class="st1" d="M99.1,12.4L80,50.6c0.8,0.2,9.7,5.3,9.7,5.3l20-38.4L99.1,12.4z"/>
		<path class="st1" d="M112.3,19.1L93.4,57.2c0.4,0.2,9.4,5.7,9.4,5.7l2.5-4.7l1.5-0.5L120,29.3l-0.5-3l1.9-3.1L112.3,19.1z"/>
		<path class="st1" d="M131.1,8.3h-3.6l-38-19.5c0,0-4.8,10.5-4.9,10.7L125,19.4L131.1,8.3z"/>
		<polygon class="st1" points="131.7,6.5 135.2,-0.7 139.4,-4.7 132.4,-12 114.6,-20.6 94.2,-20.6 91.4,-14.5 		"/>
		<polygon class="st1" points="139.4,-4.7 132.7,-11.8 132.4,-12 		"/>
		<path class="st1" d="M128.2-17.2l-2.8-3.3h-4.2l7.4,3.9L128.2-17.2z"/>
		<path class="st1" d="M128.7-16.7l-0.5-0.6L128.7-16.7L128.7-16.7z"/>
		<polygon class="st1" points="130.7,12.4 126.7,20 130.4,21.9 		"/>
		<path class="st1" d="M168.4,56.2l11.1-13.6v-5.1L141.5-2L137,1.2l-5.2,9.8l0.9,2.3l-0.9,8.9l7.2,5l7.3,7.8h0.2
			C158.3,35,168,44.4,168.4,56.2z"/>
		<path class="st1" d="M138,36.7l1.4-1.8l-6.6-6l-7.8-4l-1.7,3.9l-1.9,1l-13.5,28.5l0.4,1.7c0,0-2.2,4.4-2.5,4.5l10.2,6.2l6.6-14.4
			l2.3-2.9C126,46,131,39.6,138,36.7z"/>
		<path class="st1" d="M140.1,35.8L140,36l0.2-0.1L140.1,35.8z"/>
		<path class="st1" d="M159.5,76.6l8.9,5c0,0,6.4-10.4,6.4-11c0-0.2-3.1-3.3-7.3-7.5c-0.8,2.5-2,4.9-3.6,7L159.5,76.6z"/>
		<path class="st1" d="M125.1,61.5l-2.2-1.2l-6,12.4l1.6,1.3l2.8-0.1l16.4,9L129,70.2C127.2,67.6,125.8,64.7,125.1,61.5z"/>
		<polygon class="st1" points="157.5,79.5 150.4,89.9 160.5,95.4 166.6,84.6 		"/>
		<polygon class="st1" points="142.8,90.2 118.8,77.3 118.3,75.4 116.9,74.5 113.2,88 116.5,88.3 152.8,109.8 158.4,98.6 
			148.2,93.1 146.5,95.6 		"/>
		<path class="st1" d="M113.9,92.1v-1.6c-0.4-0.4-0.9-0.7-1.3-1l-6.3,13.6h3.7l33.8,19.3h1.6l5.7-9.8L113.9,92.1z"/>
		<path class="st1" d="M103.5,67.3l-9.7,17.5c0,0,6.4-0.5,8,1s1.7,3.6,1.4,7.1c-0.3,2.4-1.2,4.7-2.6,6.7c0.5,0.2,4.3,2.8,4.3,2.8
			l6.4-14.7l3.1-14.2L103.5,67.3z"/>
		<path class="st1" d="M99.9,87.2c-1.8-1-6.9,0.4-6.9,0.4L90.2,94c0,0,8.1,5,8.3,4.9s2.8-4.8,2.8-6.9S101.7,88.2,99.9,87.2z"/>
		<path class="st1" d="M88.7,95.9c0,0-7.8,15.2-13.7,26.5h19.3l9.2-18.6L88.7,95.9z"/>
		<polygon class="st1" points="97.6,122.4 103.5,122.4 98.7,119.9 		"/>
		<polygon class="st1" points="100.6,116.2 111.9,122.4 138.1,122.4 106.3,105.1 		"/>
		<polygon class="st1" points="151.2,122.4 167.8,122.4 155.1,115.9 		"/>
		<path class="st1" d="M157.2,112.3c0.3,0,9.8,5,19.4,10.1h24c-8.6-4.9-37.7-21.5-37.7-21.3S157.2,112.3,157.2,112.3z"/>
		<path class="st1" d="M178.5,74.5l-13.6,23.1c0.6,0.1,11.7,6.5,11.7,6.5l12-21.1L178.5,74.5z"/>
		<path class="st1" d="M191.5,85.8l-11.4,20l24.2,14.4l5.2-8.9c-2.4-4.7-5-9.2-7.9-13.6C198.5,93.5,195.1,89.5,191.5,85.8z"/>
		<polygon class="st1" points="207.8,122.4 213.4,122.4 211.6,115.9 		"/>
		<path class="st1" d="M240.3,96.4l-19.2-18.6c-14.9-14.3-32.3-30.9-32.4-31s-6.5,0.8-6.5,0.8l-11,12.8l13.6,12
			c1.6,1.4,20,19,24.8,28c3.5,7,6.6,14.3,9.2,21.7c0,0,9.5-3.6,11.8-4s1,1.7,1,1.7l-7.2,2.7h20.5C242.5,108.9,240.7,98.5,240.3,96.4
			z"/>
		<polygon class="st1" points="267.2,122.4 249.6,105.3 267.1,122.4 		"/>
		<path class="st1" d="M240.2,96.1c-3.5-3.4-11-10.5-19.1-18.3l19.2,18.6L240.2,96.1z"/>
		<path class="st1" d="M161.9-17.2c0.2,0.2,9.1-1.9,11.2-3.4H159L161.9-17.2z"/>
		<polygon class="st1" points="293,-9 293,-20.6 232.8,-20.6 245.2,-9 		"/>
		<path class="st1" d="M284.3,86.1l8.7-8V-4.3L243.9-3l-18.6-17.5h-17.2l2,2.3l-9,9.9l-9.7-8.1l3.8-4.1h-3.9l-17,18l0.1,0.1l63.6,63
			c0.6-1.3,1.3-2.6,2.1-3.8l-3.2-1.4c0,0-44.1-45.7-44.7-46.1L205-4.9l24.7,22.3l15.2-13.7l12.5-1.3l0.7,2.4L278,4.1l3.4,62
			l-7.8,0.6v2.7l-3.4-0.2l-3.3-6h-11.5l-13.9-6l0,0c-0.5,1.3-1.2,3.4-1.2,3.4s3.9,3.5,4.4,3s-0.8-1.5,0-2.3s2.8-0.3,2.8-0.3
			s11.4,6.1,12,7.2s0.5,2.5,0.1,4.7s-4,4.9-4,4.9l37.3,37v-11.4c-4-4.3-8.7-8.8-9.5-11.2C282.6,89.4,284.3,86.1,284.3,86.1z"/>
		<polygon class="st1" points="174.5,-2.4 174.4,-2.6 174.4,-2.6 		"/>
		<path class="st1" d="M248.6,67.3c0,0-7.8-4.5-8.8-5l7.7,7.6L248.6,67.3z"/>
		<path class="st1" d="M247.5,69.9L247.5,69.9l-7.7-7.6l-0.1-0.1L247.5,69.9z"/>
		<path class="st1" d="M256.1,68.4c0-1.6-9.7-6.5-10-6s5,4.3,5,4.3l-2.2,4.6l5.2,5.2C254.2,76.4,256.1,69.9,256.1,68.4z"/>
		<polygon class="st1" points="254.1,76.5 254.1,76.5 248.9,71.3 248.9,71.4 		"/>
		<path class="st1" d="M258.2,72.7c0.2-1.2-0.1-2.5-0.9-3.4l-1.9,6.9C256.7,75.3,257.6,74.1,258.2,72.7z"/>
		<path class="st1" d="M287.6,91.4c0.4,1.4,3.1,4,3.1,4l2.3-2.2V82.9l-5.1,5.4C287.5,89.3,287.4,90.4,287.6,91.4z"/>
		<path class="st6" d="M249.6,105.3l-9.4-9.2v0.1l2.1,2.1L249.6,105.3z"/>
		<path class="st6" d="M244.8,122.4H267l-26.8-26C240.7,98.5,242.5,108.9,244.8,122.4z"/>
		<path class="st6" d="M267,122.4h0.1l-17.5-17.2l-7.2-7.1l-2.1-2.1l0.1,0.3L267,122.4z"/>
		<path class="st7" d="M240.4,56.5l-0.2,0.3l1.4,0.6C242.1,56.1,241.2,55.6,240.4,56.5z"/>
		<path class="st7" d="M241.6,57.3l13.9,6H267l3.3,6l3.4,0.2v-2.8l7.8-0.6l-3.4-62l-19.7,0.7l-0.7-2.4l-12.5,1.3L230,17.3L205.2-4.9
			L192.4,9.2c0.6,0.5,44.7,46.2,44.7,46.2l3.2,1.4l0.2-0.3C241.2,55.6,242.1,56.1,241.6,57.3z"/>
		<polygon class="st8" points="191.5,-16.5 201.2,-8.4 210.1,-18.3 208.1,-20.6 195.3,-20.6 		"/>
		<path class="st9" d="M130,60.3c-2-1.2-4.8-2.9-5.2-2.9L140,36c-0.7,0.2-1.3,0.5-1.9,0.7l-13.2,16.8c-0.4,2.7-0.4,5.4,0.2,8.1
			l6.7,3.7C131,63.7,130.3,62.1,130,60.3z"/>
		<polygon class="st9" points="142.8,90.2 148.2,93.1 150.4,89.9 137.8,82.9 		"/>
		<path class="st9" d="M143.8,40.2c0.9-0.2,1.8-0.2,2.7-0.2c1.9,0,3.8,0.4,5.6,1l-5.4-5.5l-0.4-0.5c-2.1,0-4.2,0.3-6.2,0.9l4.1,3.5
			L143.8,40.2z"/>
		<path class="st9" d="M162.6,51.8c0.5,1.6,0.8,3.4,0.8,5.1c0,0.7-0.1,1.4-0.1,2.1l4.2,4.2c0.6-2,0.9-4.1,0.9-6.3c0-0.2,0-0.5,0-0.7
			l-0.7,0.8L162.6,51.8z"/>
		<path class="st9" d="M147.1,73.8l10.4,5.8l2-2.9l-7-3.9C150.8,73.3,149,73.7,147.1,73.8z"/>
		<path class="st9" d="M152.1,41c5,1.8,8.9,5.8,10.5,10.8l5.1,5.3l0.7-0.8C168,44.4,158.3,35,146.5,35h-0.2l0.4,0.5L152.1,41z"/>
		<path class="st9" d="M124.9,53.4L138,36.7C131,39.6,126.1,46,124.9,53.4z"/>
		<path class="st9" d="M130,60.3c-1.9-9.1,3.9-18,13-20c0.3-0.1,0.5-0.1,0.8-0.1l0.5-0.8l-4.1-3.5L140,36l-15.2,21.4
			C125.1,57.5,128,59.2,130,60.3z"/>
		<path class="st9" d="M152.6,72.7l7,3.9l4.4-6.4c1.6-2.1,2.8-4.5,3.6-7l-4.2-4.2C162.5,65.2,158.4,70.5,152.6,72.7z"/>
		<path class="st9" d="M147.1,73.8c-0.2,0-0.4,0-0.6,0c-6.1,0-11.7-3.3-14.7-8.6l-6.7-3.7c0.7,3.2,2,6.1,4,8.7l8.7,12.7l12.6,6.9
			l7.1-10.3L147.1,73.8z"/>
		<polygon class="st9" points="146.5,95.6 148.2,93.1 142.8,90.2 		"/>
		<path class="st0" d="M136.1,63.4l10.6-20.6c0,0,8.8,8.6,16.5,16.2c0.1-0.7,0.1-1.4,0.1-2.1c0-1.7-0.3-3.4-0.8-5.1L152.1,41
			c-1.8-0.6-3.7-1-5.6-1c-0.9,0-1.8,0.1-2.7,0.2l-11.9,21.3l-1.8-1.2c0.4,1.7,1,3.4,1.9,4.9l15.3,8.5c1.9-0.1,3.7-0.4,5.4-1.1
			L136.1,63.4z"/>
		<path class="st0" d="M152.1,41l10.5,10.8C161,46.8,157.1,42.7,152.1,41z"/>
		<path class="st0" d="M143.8,40.2c-9.2,1.5-15.4,10.2-13.9,19.3c0,0.3,0.1,0.5,0.1,0.8l1.9,1.2L143.8,40.2z"/>
		<path class="st0" d="M136.1,63.4l16.4,9.3c5.8-2.2,9.9-7.5,10.7-13.7c-7.7-7.7-16.5-16.2-16.5-16.2L136.1,63.4z"/>
		<path class="st0" d="M146.5,73.8c0.2,0,0.4,0,0.6,0l-15.3-8.5C134.8,70.6,140.4,73.8,146.5,73.8z"/>
	</g>
</g>
<path class="st10" d="M253.2,31.8H44.8c-7.3,0-13.2-5.9-13.2-13.2l0,0c0-7.3,5.9-13.2,13.2-13.2h208.3c7.3,0,13.2,5.9,13.2,13.2l0,0
	C266.4,25.8,260.5,31.8,253.2,31.8z"/>
<g>
	<g>
		<path class="st0" d="M43.3,23.6v-4.9H42v-1.1h1.3v-4.6h3.3c1.4,0,2.5,0.4,3.4,1.3c0.9,0.9,1.3,2,1.3,3.4V19c0,1.4-0.4,2.5-1.3,3.4
			c-0.9,0.9-2,1.3-3.4,1.3h-3.3V23.6z M46.8,18.7h-2v3.8h1.9c1,0,1.8-0.4,2.4-1c0.6-0.6,0.9-1.5,0.9-2.5v-1.5c0-1-0.3-1.9-0.9-2.5
			c-0.6-0.6-1.4-1-2.4-1h-1.9v3.5h2V18.7z"/>
		<path class="st0" d="M54.6,25.9H53v-1.5h1.6V25.9z M54.5,13.5h-1.4V12h1.5v1.5H54.5z M54.5,23.6h-1.4v-7.9h1.5v7.9H54.5z"/>
		<path class="st0" d="M61.6,23.6c0-0.3-0.1-0.5-0.1-0.6c0-0.1,0-0.4,0-0.5c-0.3,0.4-0.6,0.8-1,1c-0.4,0.3-0.9,0.4-1.4,0.4
			c-0.9,0-1.5-0.3-1.9-0.6c-0.4-0.4-0.6-1-0.6-1.8c0-0.8,0.3-1.4,0.9-1.8S59,19,60,19h1.6v-0.8c0-0.5-0.1-0.9-0.4-1.1
			s-0.6-0.4-1.3-0.4c-0.5,0-0.9,0.1-1.1,0.4c-0.3,0.3-0.4,0.5-0.4,0.9h-1.6l0,0c0-0.6,0.3-1.1,0.9-1.6c0.6-0.5,1.4-0.8,2.3-0.8
			c0.9,0,1.6,0.3,2.1,0.6s0.9,1.1,0.9,2v3.9c0,0.3,0,0.5,0,0.9c0,0.4,0.1,0.5,0.1,0.8h-1.5V23.6z M59.2,22.6c0.5,0,1-0.1,1.4-0.4
			c0.4-0.3,0.8-0.6,0.9-0.9V20h-1.6c-0.6,0-1,0.1-1.4,0.5c-0.4,0.4-0.5,0.6-0.5,1s0.1,0.6,0.4,0.9C58.5,22.4,58.9,22.6,59.2,22.6z"
			/>
		<path class="st0" d="M72.1,22.6c0.5,0,0.9-0.1,1.3-0.5c0.4-0.4,0.5-0.6,0.5-1.1h1.3l0,0c0,0.6-0.3,1.3-0.9,1.9s-1.4,0.8-2.3,0.8
			c-1.1,0-2-0.4-2.6-1.1c-0.6-0.8-0.9-1.8-0.9-2.9v-0.3c0-1.1,0.3-2.1,0.9-2.9c0.6-0.8,1.5-1.1,2.6-1.1c0.9,0,1.6,0.3,2.3,0.9
			c0.6,0.6,0.9,1.3,0.9,2l0,0h-1.3c0-0.5-0.1-0.9-0.5-1.3c-0.4-0.4-0.8-0.5-1.3-0.5c-0.8,0-1.3,0.3-1.6,0.9c-0.4,0.5-0.5,1.3-0.5,2
			v0.3c0,0.8,0.1,1.5,0.5,2C70.8,22.1,71.3,22.6,72.1,22.6z"/>
		<path class="st0" d="M78.2,16.7c0.3-0.4,0.6-0.6,1-0.9c0.4-0.3,0.9-0.4,1.4-0.4c0.9,0,1.5,0.3,2,0.8c0.5,0.5,0.8,1.3,0.8,2.4v5
			h-1.5v-5c0-0.6-0.1-1.1-0.4-1.5s-0.8-0.5-1.3-0.5c-0.4,0-0.8,0.1-1.1,0.3c-0.4,0.1-0.6,0.5-0.8,0.8v5.9h-1.5V12h1.4V16.7z"/>
		<path class="st0" d="M86.9,23.6h-1.5v-7.9h1.5V23.6z M85.6,14.4v-1.1c0.4,0,0.6-0.1,0.8-0.1s0.3-0.3,0.3-0.4
			c0-0.3-0.1-0.4-0.4-0.4s-0.5-0.1-0.9-0.1v-0.8c0.8,0,1.3,0.1,1.6,0.4c0.4,0.3,0.6,0.6,0.6,1c0,0.4-0.1,0.6-0.4,0.8
			c-0.3,0.1-0.5,0.3-0.8,0.4v0.5h-0.9V14.4z"/>
		<path class="st0" d="M96.2,22.6c0.5,0,0.9-0.1,1.3-0.5c0.4-0.4,0.5-0.6,0.5-1.1h1.3l0,0c0,0.6-0.3,1.3-0.9,1.9s-1.4,0.8-2.3,0.8
			c-1.1,0-2-0.4-2.6-1.1c-0.6-0.8-0.9-1.8-0.9-2.9v-0.3c0-1.1,0.3-2.1,0.9-2.9c0.6-0.8,1.5-1.1,2.6-1.1c0.9,0,1.6,0.3,2.3,0.9
			c0.6,0.6,0.9,1.3,0.9,2l0,0h-1.3c0-0.5-0.1-0.9-0.5-1.3c-0.4-0.4-0.8-0.5-1.3-0.5c-0.8,0-1.3,0.3-1.6,0.9c-0.4,0.5-0.5,1.3-0.5,2
			v0.3c0,0.8,0.1,1.5,0.5,2C94.9,22.1,95.4,22.6,96.2,22.6z"/>
		<path class="st0" d="M102.3,16.7c0.3-0.4,0.6-0.6,1-0.9c0.4-0.3,0.9-0.4,1.4-0.4c0.9,0,1.5,0.3,2,0.8c0.5,0.5,0.8,1.3,0.8,2.4v5
			H106v-5c0-0.6-0.1-1.1-0.4-1.5s-0.8-0.5-1.3-0.5c-0.4,0-0.8,0.1-1.1,0.3c-0.4,0.1-0.6,0.5-0.8,0.8v5.9H101V12h1.5v4.6H102.3z"/>
		<path class="st0" d="M111,13.5h-1.4V12h1.5v1.5H111z M111,23.6h-1.4v-7.9h1.5v7.9H111z"/>
		<path class="st0" d="M118.9,13.6v1.9h1.5v1.1h-1.5v4.8c0,0.4,0.1,0.6,0.3,0.8s0.4,0.3,0.6,0.3c0.1,0,0.1,0,0.3,0s0.3,0,0.3-0.1
			l0.3,1c-0.1,0.1-0.3,0.1-0.5,0.3c-0.3,0.1-0.4,0.1-0.6,0.1c-0.6,0-1-0.1-1.4-0.5s-0.5-0.9-0.5-1.6v-4.8h-1.3v-1.1h1.3v-1.9h1.4
			V13.6z"/>
		<path class="st0" d="M123.8,13.5h-1.5V12h1.5V13.5z M123.8,23.6h-1.5v-7.9h1.5V23.6z"/>
		<path class="st0" d="M129.3,23.7c-1.1,0-2-0.4-2.6-1.1c-0.6-0.8-1-1.8-1-2.9v-0.4c0-1.1,0.4-2.1,1-2.9c0.6-0.8,1.5-1.1,2.4-1.1
			c1.1,0,1.9,0.4,2.4,1c0.5,0.6,0.9,1.5,0.9,2.6v0.9h-5.2l0,0c0,0.8,0.3,1.4,0.6,1.9c0.4,0.5,0.9,0.8,1.5,0.8c0.5,0,0.9-0.1,1.3-0.3
			c0.4-0.1,0.6-0.4,1-0.6l0.6,1c-0.3,0.3-0.6,0.5-1.1,0.8C130.6,23.6,130,23.7,129.3,23.7z M128.5,12.3h1.1l2.1,1.9l0,0h-1.5L129,13
			l-1.3,1.1h-1.5l0,0L128.5,12.3z M129.1,16.7c-0.5,0-0.9,0.3-1.3,0.6c-0.4,0.4-0.5,0.9-0.6,1.5l0,0h3.6v-0.3c0-0.6-0.1-1-0.5-1.4
			S129.7,16.7,129.1,16.7z M132.2,11h1.5l-1.5,1.9h-1.1L132.2,11z"/>
		<path class="st0" d="M135.9,13.6v1.9h1.5v1.1h-1.5v4.8c0,0.4,0.1,0.6,0.3,0.8s0.4,0.3,0.6,0.3c0.1,0,0.1,0,0.3,0
			c0.1,0,0.3,0,0.3-0.1l0.3,1c-0.1,0.1-0.3,0.1-0.5,0.3c-0.3,0.1-0.4,0.1-0.6,0.1c-0.6,0-1-0.1-1.4-0.5c-0.4-0.4-0.5-0.9-0.5-1.6
			v-4.8h-1.3v-1.1h1.3v-1.9h1.4V13.6z"/>
		<path class="st0" d="M150.8,14.5h-1.5v9h-1.1l-0.1-1c-0.3,0.4-0.6,0.6-1,0.9c-0.4,0.3-0.9,0.3-1.3,0.3c-1,0-1.8-0.4-2.3-1
			c-0.5-0.6-0.9-1.6-0.9-2.8v-0.1c0-1.3,0.3-2.3,0.9-3.1c0.6-0.9,1.3-1.1,2.3-1.1c0.5,0,0.9,0.1,1.3,0.3c0.4,0.1,0.6,0.4,0.9,0.8v-2
			H146v-1.1h1.8v-1.3h1.5v1.3h1.5L150.8,14.5L150.8,14.5z M144,19.9c0,0.8,0.1,1.5,0.5,1.9s0.9,0.8,1.5,0.8c0.4,0,0.8-0.1,1.1-0.3
			s0.5-0.5,0.8-0.9v-3.8c-0.1-0.4-0.4-0.6-0.8-0.8c-0.4-0.1-0.6-0.3-1.1-0.3c-0.8,0-1.3,0.3-1.5,0.9c-0.4,0.6-0.5,1.4-0.5,2.3V19.9z
			"/>
		<path class="st0" d="M156.6,23.6c0-0.3-0.1-0.5-0.1-0.6c0-0.1,0-0.4,0-0.5c-0.3,0.4-0.6,0.8-1,1c-0.4,0.3-0.9,0.4-1.4,0.4
			c-0.9,0-1.5-0.3-1.9-0.6s-0.6-1-0.6-1.8c0-0.8,0.3-1.4,0.9-1.8c0.6-0.4,1.5-0.6,2.5-0.6h1.6v-0.8c0-0.5-0.1-0.9-0.4-1.1
			c-0.3-0.3-0.6-0.4-1.3-0.4c-0.5,0-0.9,0.1-1.1,0.4s-0.4,0.5-0.4,0.9h-1.4l0,0c0-0.6,0.3-1.1,0.9-1.6c0.6-0.5,1.4-0.8,2.3-0.8
			s1.6,0.3,2.1,0.6s0.9,1.1,0.9,2v3.9c0,0.3,0,0.5,0,0.9c0,0.4,0.1,0.5,0.1,0.8h-1.8V23.6z M157.4,12.4c0,0.5-0.1,0.9-0.4,1.1
			c-0.3,0.3-0.6,0.5-1.1,0.5c-0.4,0-0.8-0.1-1.1-0.4s-0.8-0.4-1-0.4c-0.3,0-0.4,0.1-0.5,0.3c-0.1,0.1-0.3,0.4-0.3,0.6l-0.8-0.3
			c0-0.5,0.1-0.9,0.4-1.1c0.3-0.3,0.6-0.5,1.1-0.5c0.3,0,0.6,0.1,1,0.4c0.4,0.3,0.8,0.4,1,0.4c0.3,0,0.4-0.1,0.5-0.3
			c0.1-0.1,0.3-0.4,0.3-0.6L157.4,12.4z M154.2,22.6c0.5,0,1-0.1,1.4-0.4c0.4-0.3,0.8-0.6,0.9-0.9V20h-1.6c-0.6,0-1,0.1-1.4,0.5
			c-0.4,0.4-0.5,0.6-0.5,1s0.1,0.6,0.4,0.9C153.5,22.4,153.8,22.6,154.2,22.6z"/>
		<path class="st0" d="M171.7,14.5h-1.5v9H169l-0.1-1c-0.3,0.4-0.6,0.6-1,0.9c-0.4,0.3-0.9,0.3-1.3,0.3c-1,0-1.8-0.4-2.3-1
			c-0.5-0.6-0.9-1.6-0.9-2.8v-0.1c0-1.3,0.3-2.3,0.9-3.1c0.6-0.9,1.3-1.1,2.3-1.1c0.5,0,0.9,0.1,1.3,0.3c0.4,0.1,0.6,0.4,0.9,0.8v-2
			H167v-1.1h1.8v-1.3h1.5v1.3h1.5v1.1H171.7z M164.9,19.9c0,0.8,0.1,1.5,0.5,1.9s0.9,0.8,1.5,0.8c0.4,0,0.8-0.1,1.1-0.3
			s0.5-0.5,0.8-0.9v-3.8c-0.1-0.4-0.4-0.6-0.8-0.8c-0.4-0.1-0.6-0.3-1.1-0.3c-0.8,0-1.3,0.3-1.5,0.9c-0.4,0.6-0.5,1.4-0.5,2.3V19.9z
			"/>
		<path class="st0" d="M181.7,14.5L181.7,14.5c0,0.9-0.1,1.6-0.6,2s-1.1,0.8-2,0.8v6.2h-1.3l-0.1-1.1c-0.3,0.4-0.6,0.8-1,1
			s-0.9,0.4-1.4,0.4c-0.9,0-1.5-0.3-2-0.9s-0.8-1.4-0.8-2.6v-4.6h1.5v4.6c0,0.9,0.1,1.4,0.4,1.8c0.3,0.4,0.6,0.5,1.1,0.5
			s0.9-0.1,1.3-0.3s0.6-0.5,0.8-0.9v-5.8h1.5v0.9l0,0c0.5,0,0.9-0.3,1-0.5c0.1-0.3,0.3-0.8,0.3-1.4
			C180.3,14.5,181.7,14.5,181.7,14.5z"/>
		<path class="st0" d="M181.1,19.5c0-1.1,0.4-2.1,1-2.9c0.6-0.8,1.5-1.1,2.6-1.1c0.5,0,1,0.1,1.4,0.3s0.8,0.4,1.1,0.8
			c0.4-0.1,0.8-0.3,0.9-0.6c0.1-0.4,0.3-0.8,0.3-1.3h1.3c0,0.8-0.1,1.3-0.5,1.8s-0.8,0.8-1.4,0.9c0.1,0.4,0.3,0.6,0.4,1
			c0.1,0.4,0.1,0.8,0.1,1.3v0.1c0,1.1-0.4,2.1-1,2.9c-0.6,0.8-1.5,1.1-2.6,1.1c-1.1,0-2-0.4-2.6-1.1c-0.6-0.8-1-1.8-1-2.9v-0.1
			H181.1z M182.5,19.7c0,0.9,0.1,1.5,0.5,2.1s0.9,0.9,1.6,0.9c0.8,0,1.3-0.3,1.6-0.9s0.5-1.3,0.5-2.1v-0.1c0-0.9-0.1-1.5-0.5-2.1
			c-0.4-0.5-0.9-0.9-1.6-0.9c-0.8,0-1.3,0.3-1.6,0.9c-0.4,0.5-0.5,1.3-0.5,2.1V19.7z M185.5,26.1h-1.6v-1.5h1.6V26.1z"/>
		<path class="st0" d="M193.3,22.6c0.5,0,0.9-0.1,1.3-0.5c0.4-0.4,0.5-0.6,0.5-1.1h1.3l0,0c0,0.6-0.3,1.3-0.9,1.9
			c-0.6,0.6-1.4,0.8-2.3,0.8c-1.1,0-2-0.4-2.6-1.1c-0.6-0.8-0.9-1.8-0.9-2.9v-0.3c0-1.1,0.3-2.1,0.9-2.9c0.6-0.8,1.5-1.1,2.6-1.1
			c0.9,0,1.6,0.3,2.3,0.9c0.6,0.6,0.9,1.3,0.9,2l0,0H195c0-0.5-0.1-0.9-0.5-1.3s-0.8-0.5-1.3-0.5c-0.8,0-1.3,0.3-1.6,0.9
			c-0.4,0.5-0.5,1.3-0.5,2v0.3c0,0.8,0.1,1.5,0.5,2S192.5,22.6,193.3,22.6z"/>
		<path class="st0" d="M208.6,19.9c0,1.1-0.3,2.1-0.9,2.8c-0.6,0.6-1.3,1-2.3,1c-0.5,0-1-0.1-1.4-0.3c-0.4-0.1-0.8-0.5-1-0.9l-0.1,1
			h-1.1V12.1h1.5v4.5c0.3-0.4,0.5-0.6,0.9-0.8c0.4-0.1,0.8-0.3,1.3-0.3c1,0,1.8,0.4,2.3,1.1S208.6,18.5,208.6,19.9L208.6,19.9
			L208.6,19.9z M207.2,19.8c0-0.9-0.1-1.6-0.5-2.3c-0.4-0.6-0.9-0.9-1.5-0.9c-0.5,0-0.9,0.1-1.1,0.4s-0.5,0.5-0.8,0.9v3.4
			c0.1,0.4,0.4,0.8,0.8,0.9c0.4,0.1,0.6,0.4,1.1,0.4c0.6,0,1.1-0.3,1.5-0.8s0.5-1.1,0.5-1.9V19.8z"/>
		<path class="st0" d="M215.3,23.6c0-0.3-0.1-0.5-0.1-0.6c0-0.1,0-0.4,0-0.5c-0.3,0.4-0.6,0.8-1,1c-0.4,0.3-0.9,0.4-1.4,0.4
			c-0.9,0-1.5-0.3-1.9-0.6c-0.4-0.4-0.6-1-0.6-1.8c0-0.8,0.3-1.4,0.9-1.8c0.6-0.4,1.5-0.6,2.5-0.6h1.6v-0.8c0-0.5-0.1-0.9-0.4-1.1
			c-0.3-0.3-0.6-0.4-1.3-0.4c-0.5,0-0.9,0.1-1.1,0.4s-0.4,0.5-0.4,0.9h-1.4l0,0c0-0.6,0.3-1.1,0.9-1.6c0.6-0.5,1.4-0.8,2.3-0.8
			s1.6,0.3,2.1,0.6s0.9,1.1,0.9,2v3.9c0,0.3,0,0.5,0,0.9c0,0.4,0.1,0.5,0.1,0.8h-1.8V23.6z M212.9,22.6c0.5,0,1-0.1,1.4-0.4
			c0.4-0.3,0.8-0.6,0.9-0.9V20h-1.6c-0.6,0-1,0.1-1.4,0.5c-0.4,0.4-0.5,0.6-0.5,1s0.1,0.6,0.4,0.9C212.1,22.4,212.5,22.6,212.9,22.6
			z M212.9,14.3v-1.1c0.4,0,0.6-0.1,0.8-0.1c0.1,0,0.3-0.3,0.3-0.4c0-0.3-0.1-0.4-0.4-0.4c-0.3,0-0.5-0.1-0.9-0.1v-0.8
			c0.8,0,1.3,0.1,1.6,0.4s0.6,0.6,0.6,1c0,0.4-0.1,0.6-0.4,0.8c-0.3,0.1-0.5,0.3-0.8,0.4v0.5h-0.9V14.3z"/>
		<path class="st0" d="M218.3,19.5c0-1.1,0.4-2.1,1-2.9c0.6-0.8,1.5-1.1,2.6-1.1c1.1,0,2,0.4,2.6,1.1c0.6,0.8,1,1.8,1,2.9v0.1
			c0,1.1-0.4,2.1-1,2.9c-0.6,0.8-1.5,1.1-2.6,1.1s-2-0.4-2.6-1.1c-0.6-0.8-1-1.8-1-2.9V19.5z M219.8,19.7c0,0.9,0.1,1.5,0.5,2.1
			s0.9,0.9,1.6,0.9c0.8,0,1.3-0.3,1.6-0.9s0.5-1.3,0.5-2.1v-0.1c0-0.9-0.1-1.5-0.5-2.1c-0.4-0.5-0.9-0.9-1.6-0.9
			c-0.8,0-1.3,0.3-1.6,0.9c-0.4,0.5-0.5,1.3-0.5,2.1V19.7z"/>
		<path class="st0" d="M232.3,15.6l0.1,1c0.3-0.4,0.6-0.6,1-0.9s0.9-0.3,1.4-0.3s1,0.1,1.4,0.4s0.6,0.6,0.9,1.1
			c0.3-0.5,0.6-0.8,1-1.1c0.4-0.4,0.9-0.4,1.4-0.4c0.8,0,1.5,0.3,1.9,0.9c0.4,0.6,0.8,1.4,0.8,2.5v4.8h-1.5v-4.8
			c0-0.8-0.1-1.4-0.4-1.6c-0.3-0.3-0.6-0.5-1.3-0.5c-0.5,0-0.9,0.1-1.3,0.5c-0.4,0.4-0.5,0.8-0.5,1.3l0,0v5h-1.5v-4.8
			c0-0.8-0.1-1.3-0.4-1.6c-0.3-0.4-0.6-0.5-1.3-0.5c-0.5,0-0.8,0.1-1.1,0.3s-0.5,0.4-0.6,0.8v5.9h-1.5v-7.9
			C230.8,15.6,232.3,15.6,232.3,15.6z"/>
		<path class="st0" d="M249.1,23.6c0-0.3-0.1-0.5-0.1-0.6c0-0.1,0-0.4,0-0.5c-0.3,0.4-0.6,0.8-1,1c-0.4,0.3-0.9,0.4-1.4,0.4
			c-0.9,0-1.5-0.3-1.9-0.6s-0.6-1-0.6-1.8c0-0.8,0.3-1.4,0.9-1.8c0.6-0.4,1.5-0.6,2.5-0.6h1.6v-0.8c0-0.5-0.1-0.9-0.4-1.1
			c-0.3-0.3-0.6-0.4-1.3-0.4c-0.5,0-0.9,0.1-1.1,0.4s-0.4,0.5-0.4,0.9h-1.4l0,0c0-0.6,0.3-1.1,0.9-1.6c0.6-0.5,1.4-0.8,2.3-0.8
			s1.6,0.3,2.1,0.6s0.9,1.1,0.9,2v3.9c0,0.3,0,0.5,0,0.9c0,0.4,0.1,0.5,0.1,0.8h-1.8V23.6z M249.4,14v0.1h-1.1l-1.1-1.1l-1.1,1.1
			h-1.1v-0.3l1.8-1.8h0.9L249.4,14z M246.7,22.6c0.5,0,1-0.1,1.4-0.4c0.4-0.3,0.8-0.6,0.9-0.9V20h-1.6c-0.6,0-1,0.1-1.4,0.5
			c-0.4,0.4-0.5,0.6-0.5,1s0.1,0.6,0.4,0.9C245.9,22.4,246.2,22.6,246.7,22.6z M247.7,26.1H246v-1.5h1.6V26.1z"/>
		<path class="st0" d="M254.3,13.6v1.9h1.5v1.1h-1.5v4.8c0,0.4,0.1,0.6,0.3,0.8c0.1,0.1,0.4,0.3,0.6,0.3c0.1,0,0.1,0,0.3,0
			c0.1,0,0.3,0,0.3-0.1l0.3,1c-0.1,0.1-0.3,0.1-0.5,0.3c-0.3,0.1-0.4,0.1-0.6,0.1c-0.6,0-1-0.1-1.4-0.5s-0.5-0.9-0.5-1.6v-4.8h-1.3
			v-1.1h1.3v-1.9h1.4V13.6z"/>
	</g>
</g>
</svg>
